<?xml version="1.0" ?><svg height="32" id="svg4152" version="1.1" viewBox="0 0 32 32" width="32" xmlns="http://www.w3.org/2000/svg" xmlns:cc="http://creativecommons.org/ns#" xmlns:dc="http://purl.org/dc/elements/1.1/" xmlns:inkscape="http://www.inkscape.org/namespaces/inkscape" xmlns:rdf="http://www.w3.org/1999/02/22-rdf-syntax-ns#" xmlns:sodipodi="http://sodipodi.sourceforge.net/DTD/sodipodi-0.dtd" xmlns:svg="http://www.w3.org/2000/svg"><defs id="defs4154"/><g id="layer1"><g id="g5378" transform="matrix(0.9965717,0,0,0.9965717,-236.32047,0.0548529)"><path d="m 251.24414,2.6367188 -0.92969,3.2988281 a 10.420865,10.420865 0 0 0 -4.4082,2.5566406 l -3.33789,-0.8457031 -1.9043,3.2968746 2.40625,2.5 a 10.420865,10.420865 0 0 0 -0.3164,2.501953 10.420865,10.420865 0 0 0 0.33789,2.572266 l -2.42774,2.492188 1.9043,3.296875 3.39844,-0.841797 a 10.420865,10.420865 0 0 0 4.31445,2.486328 l 0.96289,3.412109 3.80664,0 0.98438,-3.40625 a 10.420865,10.420865 0 0 0 4.3457,-2.5 l 3.42969,0.84961 1.90234,-3.296875 L 263.26953,18.5 a 10.420865,10.420865 0 0 0 0.32617,-2.554688 10.420865,10.420865 0 0 0 -0.31054,-2.478515 l 2.42773,-2.523438 -1.90234,-3.2968746 -3.34961,0.8496094 a 10.420865,10.420865 0 0 0 -4.46289,-2.5800782 l -0.94727,-3.2792968 -3.80664,0 z m 1.93164,9.4199222 a 3.8883821,3.8883821 0 0 1 3.88867,3.888671 3.8883821,3.8883821 0 0 1 -3.88867,3.888672 3.8883821,3.8883821 0 0 1 -3.88867,-3.888672 3.8883821,3.8883821 0 0 1 3.88867,-3.888671 z" id="circle4845" style="opacity:1;fill:none;fill-opacity:1;stroke:#0e6ea1;stroke-width:1;stroke-linecap:round;stroke-linejoin:round;stroke-miterlimit:4;stroke-dasharray:none;stroke-opacity:1"/><path d="m 253.17561,7.956042 c -4.41214,3.08e-5 -7.98888,3.576787 -7.98891,7.988934 4e-5,4.412131 3.57677,7.988857 7.98891,7.988887 4.41223,1.08e-4 7.9891,-3.576679 7.98914,-7.988887 -3e-5,-4.412255 -3.57691,-7.9890264 -7.98914,-7.988934 z" id="path4891" style="opacity:1;fill:none;fill-opacity:1;stroke:#0e6ea1;stroke-width:1;stroke-linecap:round;stroke-linejoin:round;stroke-miterlimit:4;stroke-dasharray:none;stroke-opacity:1"/></g></g></svg>