<?xml version="1.0" ?><!DOCTYPE svg  PUBLIC '-//W3C//DTD SVG 1.1//EN'  'http://www.w3.org/Graphics/SVG/1.1/DTD/svg11.dtd'><svg height="512px" style="enable-background:new 0 0 512 512;" version="1.1" viewBox="0 0 512 512" width="512px" xml:space="preserve" xmlns="http://www.w3.org/2000/svg" xmlns:xlink="http://www.w3.org/1999/xlink"><g id="_x31_65_x2C__Birdhouse_x2C__Tweet_x2C__Twitter"><g id="XMLID_5037_"><g id="XMLID_6740_"><g><g><path d="M448.26,210.55c9.26,14.49-1.149,33.5-18.35,33.5H383L363,405.5c0,12.71-10.3,23-23,23H173       c-12.7,0-23-10.29-23-23l-20-161.45H82.09c-17.2,0-27.61-19.01-18.35-33.5L235.3,90.04c12.42-8.72,28.98-8.72,41.4,0       L448.26,210.55z M306,270c0-27.61-22.39-50-50-50c-27.61,0-50,22.39-50,50c0,27.61,22.39,50,50,50       C283.61,320,306,297.61,306,270z" style="fill:#FFFFFF;"/></g><g><path d="M256,220c27.61,0,50,22.39,50,50c0,27.61-22.39,50-50,50c-27.61,0-50-22.39-50-50       C206,242.39,228.39,220,256,220z" style="fill:#FFFFFF;"/></g></g><g><g><g><path d="M256,330c-33.084,0-60-26.916-60-60s26.916-60,60-60s60,26.916,60,60S289.084,330,256,330z         M256,230c-22.056,0-40,17.944-40,40c0,22.056,17.944,40,40,40c22.056,0,40-17.944,40-40C296,247.944,278.056,230,256,230z" style="fill:#0B93E2;"/></g><g><path d="M340,438.5H173c-17.972,0-32.634-14.441-32.993-32.328L121.162,254.05H82.09        c-11.787,0-22.205-6.173-27.868-16.513c-5.663-10.339-5.254-22.441,1.092-32.372c0.702-1.099,1.612-2.049,2.678-2.798        l171.56-120.51C237.34,76.389,246.485,73.5,256,73.5c9.516,0,18.66,2.889,26.446,8.356l171.562,120.511        c1.066,0.75,1.977,1.7,2.679,2.798c6.346,9.932,6.754,22.033,1.092,32.373c-5.663,10.339-16.081,16.512-27.868,16.512h-38.072        l-18.845,152.122C372.635,424.059,357.972,438.5,340,438.5z M71.354,217.422c-1.54,3.358-1.415,7.179,0.409,10.508        c2.099,3.832,5.959,6.12,10.327,6.12H130c5.047,0,9.304,3.761,9.924,8.771l20,161.45c0.05,0.408,0.076,0.818,0.076,1.229        c0,7.168,5.832,13,13,13h167c7.168,0,13-5.832,13-13c0-0.411,0.025-0.821,0.076-1.229l20-161.45        c0.62-5.009,4.876-8.771,9.924-8.771h46.91c4.367,0,8.228-2.288,10.326-6.12c1.823-3.329,1.949-7.15,0.409-10.508        L270.952,98.223c-4.4-3.09-9.571-4.723-14.952-4.723s-10.552,1.633-14.954,4.724L71.354,217.422z" style="fill:#0B93E2;"/></g></g></g></g></g></g><g id="Layer_1"/></svg>